<svg width="9" height="12" viewBox="0 0 9 12" fill="none" xmlns="http://www.w3.org/2000/svg">
<path fill-rule="evenodd" clip-rule="evenodd" d="M0 4.24061C0 1.95595 1.85652 0.108154 4.15196 0.108154C6.4474 0.108154 8.30392 1.95595 8.30392 4.24061C8.30392 7.33994 4.15196 11.0565 4.15196 11.0565C4.15196 11.0565 0 7.33994 0 4.24061ZM2.66907 4.2406C2.66907 3.42549 3.33296 2.76472 4.15191 2.76472C4.68168 2.76472 5.17121 3.04602 5.43609 3.50266C5.70097 3.9593 5.70097 4.5219 5.43609 4.97853C5.17121 5.43517 4.68168 5.71647 4.15191 5.71647C3.33296 5.71647 2.66907 5.0557 2.66907 4.2406Z" fill="#32B768"/>
</svg>
