<svg width="18" height="19" viewBox="0 0 18 19" fill="none" xmlns="http://www.w3.org/2000/svg">
<path d="M7.43832 2.47472C8.12987 1.26816 9.87013 1.26816 10.5617 2.47472L11.9069 4.82182C12.1525 5.25031 12.5634 5.55907 13.0433 5.67577L15.7162 6.32579C17.0077 6.63986 17.5251 8.19732 16.6782 9.22173L14.7929 11.5022C14.4935 11.8643 14.3476 12.3291 14.3863 12.7974L14.6276 15.717C14.7403 17.08 13.3517 18.0658 12.1021 17.5099L9.73159 16.4554C9.26586 16.2483 8.73414 16.2483 8.26841 16.4554L5.89786 17.5099C4.64829 18.0658 3.25974 17.08 3.37239 15.717L3.61372 12.7974C3.65242 12.3291 3.5065 11.8643 3.20713 11.5022L1.3218 9.22173C0.474897 8.19732 0.992248 6.63986 2.28377 6.32579L4.95673 5.67577C5.43662 5.55907 5.84749 5.25031 6.09308 4.82182L7.43832 2.47472Z" stroke="#374151" stroke-width="1.5" stroke-linejoin="round"/>
</svg>
